<svg version="1" xmlns="http://www.w3.org/2000/svg" width="266.667" height="266.667" viewBox="0 0 200.000000 200.000000"><path d="M136.5 14.6c-3.8.7-9 1.5-11.5 1.9-5.3.7-7 2-7 5.1 0 4.2 3.1 5.3 11.3 3.8 3.9-.6 7.4-1 7.6-.9.6.7-9.4 14.4-15.9 21.6-18.9 21-47.7 38.5-73.2 44.3l-2.7.6.1-26c0-27.6-.2-29-4.7-29-4.9 0-4.8-1-4.8 64.1 0 54.7.1 61.2 1.6 62.6 1.4 1.4 8 1.6 62.4 1.7 33.4.1 62-.3 63.5-.7 4.2-1.3 4.9-6.7 1-8.2-.9-.3-28.1-.6-60.4-.6H45.1V128l.1-27 4.1-1c36.8-9.3 70.8-33 92.1-64.3l4.6-6.8 2.2 7.7c2.4 7.9 4.9 11 8.2 9.8 3.8-1.4 3.7-3.8-.5-17.6-2.3-7.3-4.6-13.9-5.1-14.6-1.2-1.4-4.9-1.4-14.3.4z"/><path d="M137.3 58.7c-1.7 1.7-1.8 5-1.7 42.5 0 31.7.4 41 1.4 42.2 1.6 2 5.4 2.1 6.9.2.8-1 1.2-12.3 1.2-39V67l3-.1c1.6-.1 3.8-.1 4.9-.1 1.1 0 2.5 0 3 .1.6.1 1 13.2 1 37.2 0 23.6.4 37.7 1 39 1.1 2 4.5 2.5 7 .9 2.2-1.4 2.5-81.3.4-84.8-1.4-2.1-2.1-2.2-13.9-2.2-10.6 0-12.8.3-14.2 1.7zM97 94c-1.3.8-1.5 4.8-1.7 24.4-.3 25.5-.1 26.6 5.3 26.6 3.6 0 4.2-2.6 4.2-19 .1-8 .1-16.6.1-19.1l.1-4.6 5.3.3c2.8.1 5.5.2 5.8.3.3.1.6 8.9.6 19.6 0 20.7.4 22.5 4.8 22.5 1.2 0 2.8-.6 3.4-1.4 1.6-1.9 1.6-47.3 0-49.3-1.4-1.6-25.4-1.9-27.9-.3zM56 113.5c-1.6 2-1.5 28.2.1 30.2 1.5 1.8 5.4 1.7 6.9-.2.8-1 1.3-5.2 1.4-11.8l.1-10.2h5.8c6.5-.1 6.1-.9 5.7 12.7-.2 7.5 1.1 10.8 4.3 10.8 4.9 0 5.2-.9 5.2-16.5 0-11.9-.3-14.7-1.5-15.5-.8-.5-7.2-1-14.1-1-10 0-12.9.3-13.9 1.5z"/></svg>